<svg xmlns="http://www.w3.org/2000/svg" viewBox="0 0 1000 1000"><path d="M412.4 805l-22.3-8.3c2-16.3 1.3-33-1.8-49.4l21.6-10c13.5-6 19.4-22 13.2-35.6l-12.6-27.3c-6.2-13.5-22.2-19.4-35.7-13.2l-21.6 10c-10.5-13-22.7-24.3-36.2-33.6l8.2-22.3c5-14-2-29.4-16-34.6l-28-10.4c-13.6-5-29.7 2.5-34.6 16l-8.2 22.2c-16.3-1.7-33-1.2-49.4 2l-10-21.7c-6-13.5-22-19.4-35.6-13.2L116 588.2c-13.6 6.2-19.5 22.2-13.3 35.7l10 21.5C99.4 656 88 668.3 79 681.8l-22.3-8.2c-13.5-5-29.6 2.4-34.6 16l-10.3 28.2c-2.5 6.7-2.2 14 .8 20.6 3 6.5 8.4 11.5 15 14l22.4 8.2c-2 16.3-1.3 33 1.8 49.4l-21.6 10c-13.5 6-19.4 22-13.2 35.5L29.6 883c6.2 13.4 22.2 19.3 35.7 13l21.6-9.8c10.5 13 22.7 24.3 36.2 33.5L115 942c-2.5 6.7-2.2 14 .8 20.6 3 6.5 8.4 11.5 15 14l28.3 10.4c6.8 2.5 14 2.2 20.7-.8 6.5-3 11.5-8.4 14-15l8.3-22.4c16.3 1.8 33 1.2 49.4-2l10 21.7c6 13.5 22 19.4 35.6 13.2l27.3-12.6c13.5-6 19.4-22 13.2-35.6l-10-21.6c13.2-10.6 24.4-22.8 33.6-36.3l22.4 8.2c6.8 2.5 14 2.2 20.6-.8 6.5-3 11.5-8.5 14-15.2l10.3-28.3c5.2-14-2-29.4-16-34.6zm-148 70.2c-14 6.5-29 9.8-44.4 9.8-41.4 0-79.3-24.3-96.6-61.8-24.5-53.3-1.2-116.6 52-141 14.2-6.6 29-10 44.5-10 41.3 0 79.3 24.4 96.6 62 24.5 53.2 1.2 116.5-52 141zM678.5 882l-12.4-4.7c1-9 .8-18.3-1-27.5l12-5.5c7.5-3.4 10.8-12.4 7.3-20l-7-15c-3.5-7.6-12.4-11-20-7.4l-12 5.4c-5.8-7.3-12.6-13.5-20-18.7l4.5-12.4c3-7.7-1-16.4-9-19.3l-15.6-5.8c-7.5-2.8-16.5 1.3-19.2 9l-4.6 12.3c-9-1-18.3-.7-27.5 1l-5.6-12c-3.5-7.5-12.4-10.8-20-7.3l-15 7c-7.6 3.5-11 12.4-7.4 20l5.5 12c-7.3 5.8-13.5 12.6-18.7 20l-12.4-4.5c-7.5-2.8-16.5 1.3-19.2 8.8l-5.8 15.7c-1.4 3.8-1.2 7.8.4 11.5 1.7 3.6 4.7 6.4 8.4 7.8l12.4 4.6c-1 9.2-.7 18.4 1 27.6l-12 5.5c-7.5 3.6-10.8 12.5-7.3 20l7 15.2c3.4 7.5 12.4 10.8 20 7.3l12-5.5c5.8 7.3 12.6 13.5 20 18.7L513 958c-1.4 4-1.2 8 .4 11.6 1.7 3.6 4.7 6.4 8.4 7.8l15.7 5.8c3.8 1.4 7.8 1.2 11.5-.4 3.6-1.7 6.4-4.7 7.8-8.4l4.6-12.5c9 1 18.3.6 27.5-1l5.5 12c3.5 7.4 12.4 10.7 20 7.2l15-7c7.6-3.5 11-12.4 7.4-20l-5.5-12c7.4-5.8 13.6-12.6 18.8-20l12.4 4.5c3.8 1.4 7.8 1.2 11.5-.4 3.6-1.7 6.4-4.7 7.8-8.4l5.8-15.8c3-7.7-1-16.4-8.8-19.3zM596 921c-7.8 3.7-16 5.5-24.7 5.5-23 0-44.2-13.5-53.8-34.5-13.7-29.6-.7-65 29-78.5 7.8-3.6 16.2-5.4 24.7-5.4 23 0 44.2 13.6 53.8 34.5 13.7 29.7.7 65-29 78.6zM960.4 408.6l-37.6-14c3-27.3 2-55.2-3.2-83L956 295c22.6-10.4 32.6-37.3 22-60l-21-46c-10.4-22.7-37.3-32.6-60-22.2l-36.3 16.7c-17.7-22-38.3-40.8-61-56.4l14-37.4c8.5-23.4-3.5-49.5-26.8-58L739.2 14c-22.6-8.3-49.7 4-58 26.8l-14 37.6c-27.4-3-55.3-2-83 3l-16.7-36c-10.4-22.8-37.3-32.7-60-22.3l-46 21.3c-22.6 10.4-32.6 37.4-22.2 60l16.7 36.3c-21.8 17.8-40.7 38.4-56.3 61L362.2 188c-22.6-8.4-49.7 4-58 26.7L286.5 262c-4.2 11.3-3.7 23.6 1.3 34.6s14 19.3 25.3 23.4l37.6 14c-3 27.3-2 55.2 3 83L318 433.7c-22.7 10.4-32.6 37.3-22.2 60l21.2 46c10.4 22.6 37.3 32.6 60 22l36.3-16.6c17.8 22 38.4 41 61.2 56.5l-14 37.5c-4 11.3-3.6 23.6 1.4 34.6s14 19.3 25.4 23.5l47.5 17.6c11.3 4.2 23.6 3.7 34.6-1.3s19.4-14 23.6-25.4l14-37.7c27.3 3 55.2 2 83-3l16.7 36.2c10.4 22.6 37.3 32.6 60 22l46-21c22.7-10.5 32.6-37.4 22-60L817.8 588c22-17.7 41-38.2 56.4-61l37.6 14c11.3 4 23.6 3.6 34.6-1.5 11-5 19.3-14 23.5-25.4l17.6-47.4c8.5-23.3-3.5-49.4-27-58zm-248.7 118c-23.7 11-48.8 16.5-74.7 16.5-69.6 0-133.4-40.7-162.5-104-41.2-89.5-2-196 87.6-237 23.8-11 49-16.5 74.8-16.5 69.6 0 133.4 40.8 162.5 104 41.3 89.5 2 196-87.6 237.2z"/></svg>