<?xml version="1.0" encoding="utf-8"?>
<!-- Generator: Adobe Illustrator 21.0.2, SVG Export Plug-In . SVG Version: 6.00 Build 0)  -->
<svg version="1.1" id="Layer_1" xmlns="http://www.w3.org/2000/svg" xmlns:xlink="http://www.w3.org/1999/xlink" x="0px" y="0px"
	 viewBox="0 0 30.4 15" style="enable-background:new 0 0 30.4 15;" xml:space="preserve">
<style type="text/css">
	.st0{fill:#DADADA;}
	.st1{fill:#5A5A5A;}
</style>
<title>Artboard 1</title>
<path class="st0" d="M30.3,14.1c0.2,0.3,0.1,0.6-0.2,0.8C30,15,29.8,15,29.7,15h-22c-0.6,0-1.1-0.4-1.4-0.9L0.1,0.9
	C-0.1,0.6,0,0.3,0.3,0.1C0.4,0,0.5,0,0.7,0h22c0.6,0,1.1,0.4,1.4,0.9L30.3,14.1z"/>
<path class="st1" d="M21,6.2c0-0.2-0.1-0.3-0.4-0.3l-3.5-0.5l-1.6-3.2c-0.1-0.2-0.2-0.3-0.4-0.3c-0.1,0-0.3,0.1-0.4,0.3l-1.6,3.2
	L9.7,5.9C9.4,6,9.3,6.1,9.3,6.2c0,0.1,0.1,0.3,0.2,0.3l2.6,2.5l-0.6,3.5c0,0,0,0.1,0,0.1c0,0.1,0,0.2,0.1,0.3
	c0.1,0.1,0.1,0.1,0.2,0.1c0.1,0,0.2,0,0.3-0.1l3.2-1.7l3.2,1.7c0.1,0.1,0.2,0.1,0.3,0.1c0.1,0,0.2,0,0.2-0.1c0-0.1,0.1-0.2,0.1-0.3
	c0,0,0-0.1,0-0.1l-0.6-3.5l2.6-2.5C21,6.5,21,6.4,21,6.2z"/>
</svg>
